<svg width="658" height="863" viewBox="0 0 658 863" fill="none" xmlns="http://www.w3.org/2000/svg">
<path d="M591.953 298.299C608.281 374.252 633.995 420.695 648.087 481.153C661.377 541.98 664.722 600.718 633.115 681.737C601.511 762.763 510.246 875.022 435.115 861.708C370.841 850.318 333.128 766.307 241.115 731.708C149.677 697.263 39.4837 705.197 8.7046 681.737C-21.832 657.747 36.649 569.35 79.6246 504.585C122.603 439.827 150.079 398.706 170.921 312.295C191.198 225.733 205.645 93.5121 270.517 36.0536C334.828 -21.5667 450.37 -4.78714 510.246 56.5452C570.925 117.509 576.193 222.504 591.953 298.299Z" fill="#1D1D1B"/>
</svg>
