<svg
		width="100%"
		height="100%"
		viewBox="0 0 874 687"
		fill="none"
		xmlns="http://www.w3.org/2000/svg"
		preserveAspectRatio="none"
>
	<mask id="mask0_18_245" style="mask-type:alpha" maskUnits="userSpaceOnUse" x="422" y="0" width="452" height="687">
		<rect x="422" width="452" height="687" fill="#D9D9D9"/>
	</mask>
	<g mask="url(#mask0_18_245)">
		<path d="M760.018 642.678C671.428 690.143 497 676.5 368.5 676.5C252 678 189.43 807.074 109.495 837.718C95.4589 843.098 80.8893 846.357 66.0001 847.739L421.363 2.28216C534.12 2.28216 657.979 -3.42145 732.833 28.144C827.485 68.133 832.696 196.298 837.658 327.947C842.557 459.621 847.206 594.778 760.018 642.678Z" fill="#F3F3F3"/>
	</g>
	<mask id="mask1_18_245" style="mask-type:alpha" maskUnits="userSpaceOnUse" x="0" y="0" width="452" height="687">
		<rect width="452" height="687" transform="matrix(-1 0 0 1 452 0)" fill="#D9D9D9"/>
	</mask>
	<g mask="url(#mask1_18_245)">
		<path d="M113.982 642.678C202.572 690.143 377 676.5 505.5 676.5C622 678 684.57 807.074 764.505 837.718C778.541 843.098 793.111 846.357 808 847.739L452.637 2.28216C339.88 2.28216 216.021 -3.42145 141.167 28.144C46.5155 68.133 41.3035 196.298 36.3415 327.947C31.4427 459.621 26.7939 594.778 113.982 642.678Z" fill="#F3F3F3"/>
	</g>
</svg>
